<svg xmlns="http://www.w3.org/2000/svg" viewBox="0 0 1180 881" font-family="Helvetica,Arial,sans-serif">
<rect width="100%" height="100%" fill="#f7f7f4"/>
<polyline points="226.1,283.8 223.9,284.2 219.7,284.4 216.6,286.2 211.4,287.7 203.9,288.9 198.1,291.4 191.5,295.1 187.7,297.8 185.7,300.6 185.4,303.2 185.9,307.1 190.2,314.2 192.3,316.8 197.3,320.9 202.9,324.5 203.3,325.3 203.6,326.5 203.5,328.5 202.9,332.9 202.9,334.3 203.1,335.8 203.8,337.3 205.4,339.4 208,342.1 214.5,349.1 216.2,350.5 219.7,352.6 224.8,354.8 230.5,357 231.4,357.5 232.6,358 235.7,359.4 238.3,360.4 241.3,361.7 242.9,362.4 243.2,362.6 243.5,362.7 244.1,363.3 244.9,364 245.6,364.7 247,365.7 248.9,366.6 254.9,370.3 256.7,371.9 262.4,380.3 263.4,383.2 263.8,386 263.6,392.8 263.4,399.2 263.4,400.6 263.5,402.5 263.8,404.3 264.1,405 264.4,405.7 264.7,406.3 266.6,409.4 275.4,423.8 281.5,433 283,434.9 284.9,436.4 286.5,437.1 288.2,437.5 295.8,437.2 299.4,436.1 303.7,433.2 306.8,430" fill="none" stroke="#8fb8d8" stroke-width="5" stroke-linecap="round" stroke-linejoin="round" opacity="0.9"/>
<polyline points="839,436.6 840.8,437.1 842.6,437.8 844.7,438.6 847.7,437.6 850.1,436.8 852.4,435.6 853.9,434.1 855.7,432.1 856.5,430.1 856.6,426.8 856.9,425.6 859.6,421.5 861.8,418.7 862.8,418 865.5,418 866.8,418.1 869.5,417.6 870.4,416.9 871.5,415.9 872.5,413.9 873.3,412.1 875.2,407.9 875.9,403.2 876.4,400.6 876.9,396.1 878,389.9 878,388.1 877.1,386.6 876.3,384.4 874.5,382.5 874.1,381.5 874,380.4 874.5,378.4 875.3,374.7 874.7,372.6 874.1,371.8 873,370.8 871.7,369.7 869.4,368.1 868.6,366.8 869,365.9 869.3,365 870.7,364.7 872.6,364.6 875,365.6 877.4,368.4 878.6,368.8 879.3,369.1 880.2,368.8 880.8,365.3 880.1,363.2 879.2,359.9 877.6,354.1 876.3,351.4 874,349.1 873,347.9 872.6,345.4 872.9,342.1 874.5,340.1 876.1,338.2 876.4,335.9 876.3,333.3 875.6,331.2 873.2,327.4 869.6,325.7 867.9,324.4 867,323.6 866.4,323 866.1,321.3 868.2,318.6 870.1,318 871.7,316.9 872.1,314.5 871.3,312.5 870.9,309.6 871.1,308.9 871.5,307.5 872.4,306.8 874,306.4 878.4,306 880.2,304.8 879.7,303.2 878,301.7 875.8,300.4 874.6,298.9 874.7,297.5 874.8,297 875.7,296.3 877.3,294.9 878.2,294.4 879.7,293.4 881.8,292.3 887.1,292.2 889.5,291.3 891.9,289.9 893.2,289.6 895.1,289.3 898.1,289.8 901.9,291 906.2,292.2 910.3,293.1 916.5,294.9 920.9,296.2 923.5,296.8 924.9,297.2 927.8,297.7 934.1,298.5 937.6,300.3 939.3,302.9 941.6,307.7 944.8,309.8 948.1,311.1 951,311.2 953.4,311.8 954.8,313.2 956.1,315.5 958.2,318.2 960.7,321.2 961.5,322.1 963.7,323.4 967,324.7 972.4,327.6 975,329.9 975.7,330.1 976.8,330.3 978.3,329.4 979.6,328.9 981.1,327.7 982.8,324.8 984.2,321.9 985.4,320.4 986.8,320 989.2,320.3 990.7,321.2 993.1,324.2 994.2,326.4 995.7,329.5 997.8,331.2 998.8,331.6 1000.3,331.3 1001.7,331 1003.2,330.2 1004.6,329.4 1006,328.2 1007.1,326.6 1007.3,325.4 1008.4,320.3 1011,314.3 1011.9,308.8 1011.9,307 1011.8,306 1011.9,304.4 1013.9,302.9 1017.2,302.5 1019.6,302 1022.5,300 1028.6,294 1033.1,290.7 1034.4,289.8 1041.6,286.1 1052.1,282.3 1054.9,281.2 1059,279.4 1060.2,278.9 1076.3,272 1082.2,269.3 1084.2,269.2 1086.2,269.1 1090.8,269.5 1094.9,270.5 1096.7,270.8 1099.4,271.2 1103.9,272.5 1107.3,272.8 1112.6,274 1119.1,276.5 1119.3,276.6 1121.7,278 1125.3,280.7 1127.6,282.5 1130.2,283.1 1134.6,281 1137.2,279.8 1140.9,277.9 1146.6,275.8" fill="none" stroke="#8fb8d8" stroke-width="5" stroke-linecap="round" stroke-linejoin="round" opacity="0.9"/>
<polyline points="567.7,392.7 577.7,398.1 584.7,397.8 593.1,392.6 599.3,384.4 600.8,377.5 598.4,364.3 591.2,345.9 586,338.5 575.9,331.5 566.4,326 566.2,325.9 562.2,322.3 560,318.6 557.8,314 556.8,309.8 557.2,304.9 558.5,296.7 559.9,285.1 561.7,278.1 564.1,270.7 566.1,266.1 569.4,263 571.5,261.8 584.4,260.2 593,260.5 623.1,268.6 630.5,271.7 633.1,274.6 635.2,281.6 635.8,283.1 637.6,287.5 638.4,290.3 641,294.7 644.4,298.1 650.3,300.7 657,302.5 660,305.1 663.5,309.5 672.2,319.1 678.4,326.1 681.8,333 685.5,345.5 685.7,346.3 688.5,363.5 689.6,378.8 690.2,387 690.9,390.3 692.1,394.1 693.9,399 693.6,404 692.6,411.1 691.5,418.4 691.1,422.7 690.9,425.8 691.8,428.2 694,431.2 701.7,438.1 702.8,439 707,443.2 710.4,445.7 714.2,446.6 720.3,446.8 725.5,445.2 735.6,444.6 739.7,443.9 762.8,440.5 768.9,439.6 779.5,438.1 795.1,434.9 800.7,432.5 805.6,430.2 809.4,429.7 811.2,430 813,430.4 814.9,433 816.1,436.2 817.4,438.6 819.5,441.1 823,441.6 827.4,440.6 830.5,439.7 833.6,439.3 835.7,438.1 839,436.6" fill="none" stroke="#8fb8d8" stroke-width="5" stroke-linecap="round" stroke-linejoin="round" opacity="0.9"/>
<polyline points="185.3,734.3 186,734.2" fill="none" stroke="#8fb8d8" stroke-width="5" stroke-linecap="round" stroke-linejoin="round" opacity="0.9"/>
<polyline points="186,734.2 190.3,734.1 192,734 194.1,733.5 196.9,732.4 198.6,731.5 200.7,730.1 205,725.8 207.1,723.7 212.6,718.2 214,716.7 214.7,715.8 216.6,711.2 219.9,704.6 221,703 223.4,699.9 226,697.7 228.4,696.3 232.3,694.4 236.3,691.7 239.7,689.6 246.7,686.9 249.4,686.3 251.1,686.5 254,686.8 270.7,685.9 274.6,686.6 277.1,687.5 279.3,688.5 288.3,693.7 291.2,695 293.9,695.7 296.3,695.9 299.7,695.8 301.9,695.2 304.4,694 304.5,694 307.1,692.1 310.2,689.4 310.7,688.5 313.3,684.9 322.6,671.9 325.7,667.3 334,652.7 337.7,646.8 340.7,642 343.4,637.5 344.6,635.7 346.6,633.9 347.4,633.5 349,632.6 354,630.8 358.9,629 361.4,627.4 367.2,622.1 371.7,619 377.1,616.3 391.3,609.3 394.3,607.8 418.6,595.8 420.8,595.2 421.8,595.1 423.2,595.1 434.8,596.8 442.8,595.2 448.7,591.6 454,589.3 460.1,587.4 465,585.8 467.3,584.3 470.1,581.9 472.7,576.5 478.2,565 478.6,560.7 478.4,559.9 478,558 476,553.8 475.3,550.3 474.9,544.9 467.1,533.1 466.5,531 466.5,529.5 467.3,526.6 468.9,524.4 471.2,522.4 473.4,520 481.5,508.2 483.5,505.9 486.8,502.7 492.4,498 492.9,497.2 495.7,492 497.1,490.5 501,488.3 504.7,485.4 507,482.9 508.6,480.3 516.7,467.2 519.6,461.2 525.7,452.3 528.4,448.4 529.7,444.6 535,423.5 539.9,415.9 545.4,408.5 549.2,404.8 553,400.8 556.7,397.6 560,395.5 562.7,393.9 565.9,392.7 567.7,392.7" fill="none" stroke="#8fb8d8" stroke-width="5" stroke-linecap="round" stroke-linejoin="round" opacity="0.9"/>
<polyline points="463.6,371.5 467.2,371.6 476.3,370.6 491.7,368 514.9,364.2 529.3,360.2 532.8,359.9 535.6,360.5 538.7,362.9 540.9,365.2 547.6,374.3 552.3,378.1 556.5,380.5 557.8,381.7 561.4,385.6 565.3,390.1 567.7,392.7" fill="none" stroke="#8fb8d8" stroke-width="5" stroke-linecap="round" stroke-linejoin="round" opacity="0.9"/>
<polyline points="306.8,430 306.9,429.8" fill="none" stroke="#8fb8d8" stroke-width="5" stroke-linecap="round" stroke-linejoin="round" opacity="0.9"/>
<polyline points="306.9,429.8 307.5,429.2 308.4,427.4 314.8,407.2 316.1,405.4 318.5,403.3 332.7,395.5 337.2,395.1 342.3,394.2 349.3,392 355.3,389.1 360.6,385.2 364.8,380.4 374.9,371.6 378.4,366.4 381,361.2 382.1,357.2 383.3,349.1 383.2,345.8 381.9,338.1 380.7,335.2 373.7,321.9 373.4,320.2 373.6,318.1 374.5,316 376.1,313.8 378.3,311.8 386.9,305.5 388.4,304.9 390.2,304.6 392.1,304.7 400.5,305.7 404,306.7 406.6,308.6 411.3,313 418,319.8 423.8,325.6 425.1,327.2 425.9,329.5 426.5,331.4 426.5,350.6 426.9,353.9 428,356.3 429.3,358.2 431.9,360.9 434,362.3 440.4,365.4 447.3,366.9 454.8,368.8 458.9,369.3 463.6,371.5" fill="none" stroke="#8fb8d8" stroke-width="5" stroke-linecap="round" stroke-linejoin="round" opacity="0.9"/>
<polyline points="493.9,65.2 507.7,149.6 518.5,201.3 518.1,235.5 518.9,277.1 553.6,339.1 572.5,372.6 592.8,408.8 594.6,412.6 596.9,415.1 600.8,416.7 603.4,417.4 607.5,418.6 613.9,422.8 621.1,427.1 623.8,430.1 624.6,433 620.1,440.5 616.4,451 613.2,455.9 612.4,460.9 613.3,466.4 615.7,471.7 624.9,492.5 624.7,513.6 622.4,566.5 598.3,688.6 631.2,795.4" fill="none" stroke="#662c90" stroke-width="6" stroke-linecap="round" stroke-linejoin="round" opacity="0.92"/>
<polyline points="493.9,65.2 507.7,149.6 518.5,201.3 518.1,235.5 518.9,277.1 553.6,339.1 572.5,372.6 592.8,408.8 594.6,412.6 596.9,415.1 600.8,416.7 603.4,417.4 607.5,418.6 613.9,422.8 621.1,427.1 623.8,430.1 624.6,433 620.1,440.5 616.4,451 613.2,455.9 612.4,460.9 613.3,466.4 615.7,471.7 624.9,492.5 621,513.4 613.7,528.6 606.2,543.2 602.2,547.3 598.2,548.8 594.5,547.9 580,540 570.9,537.2 561.8,535.5 553.1,537 545.8,539.7 541.6,543.4 534,558.1 462.4,561 387.7,600.6 346.1,660 303.1,672.6 214.2,726.2" fill="none" stroke="#df8600" stroke-width="6" stroke-linecap="round" stroke-linejoin="round" opacity="0.92"/>
<polyline points="1119.9,543.2 1015.9,499.5 1004.8,496.8 970.8,497.6 927.3,497.7 919,497.5 912.7,497.6 907.6,499.3 819.7,547.9 815.5,552 809,552.5 789.3,552.3 768.3,552 757.1,549 753.2,546.8 751.4,542.9 749.2,538.7 748.9,524.7 747.1,516.8 743.8,508.6 740.4,503.1 731.5,494.8 723.5,485.7 718.7,480.2 692.9,472.8 689.4,468.7 688.6,468.3 667.9,445.7 667.4,445.2 666.2,444.6 624.4,433.6 623.1,433.5 621.9,433.7 621,433.8" fill="none" stroke="#0896d7" stroke-width="6" stroke-linecap="round" stroke-linejoin="round" opacity="0.92"/>
<polyline points="906.8,158.9 881.6,316.7 716.3,321.6 613,383.3 592.5,409 590.1,412.8 589.4,415.8 588.6,419 587.7,421.5 586.1,423.5 584.5,424.8 581.6,425 578.7,424.8 576,424 573.3,422.9 570.5,422 568,420.6 565.7,419.7 563.4,420.1 533.6,431.3 504.1,441.9 475.3,446.9 446.8,463 340.4,550.6 211.9,564.9 170.8,518.9 107.3,490.9" fill="none" stroke="#00b251" stroke-width="6" stroke-linecap="round" stroke-linejoin="round" opacity="0.92"/>
<circle cx="518.8" cy="103.7" r="4.2" fill="#fff" stroke="#662c90" stroke-width="2.2"/>
<text x="524.8" y="106.7" font-size="9" fill="#222">Meacham / Mercado N</text>
<circle cx="507.7" cy="149.6" r="4.2" fill="#fff" stroke="#662c90" stroke-width="2.2"/>
<text x="513.7" y="152.6" font-size="9" fill="#222">Mercado</text>
<circle cx="518.5" cy="201.3" r="4.2" fill="#fff" stroke="#662c90" stroke-width="2.2"/>
<text x="524.5" y="204.3" font-size="9" fill="#222">Stockyards North</text>
<circle cx="518.1" cy="235.5" r="4.2" fill="#fff" stroke="#662c90" stroke-width="2.2"/>
<text x="524.1" y="238.5" font-size="9" fill="#222">Stockyards Main</text>
<circle cx="518.9" cy="277.1" r="4.2" fill="#fff" stroke="#662c90" stroke-width="2.2"/>
<text x="524.9" y="280.1" font-size="9" fill="#222">Marine Park</text>
<circle cx="553.6" cy="339.1" r="4.2" fill="#fff" stroke="#662c90" stroke-width="2.2"/>
<text x="559.6" y="342.1" font-size="9" fill="#222">Panther Island - Lagrave</text>
<circle cx="572.5" cy="372.6" r="4.2" fill="#fff" stroke="#662c90" stroke-width="2.2"/>
<text x="578.5" y="375.6" font-size="9" fill="#222">Panther Island South</text>
<circle cx="612.8" cy="383" r="4.2" fill="#fff" stroke="#00b251" stroke-width="2.2"/>
<text x="618.8" y="386" font-size="9" fill="#222">Trinity Bluff</text>
<circle cx="592.8" cy="408.8" r="4.2" fill="#fff" stroke="#662c90" stroke-width="2.2"/>
<text x="598.8" y="411.8" font-size="9" fill="#222">Courthouse</text>
<circle cx="598.9" cy="419.7" r="4.2" fill="#fff" stroke="#662c90" stroke-width="2.2"/>
<text x="604.9" y="422.7" font-size="9" fill="#222">Sundance Square</text>
<circle cx="621" cy="433.8" r="4.2" fill="#fff" stroke="#0896d7" stroke-width="2.2"/>
<text x="627" y="436.8" font-size="9" fill="#222">Central Station</text>
<circle cx="615.7" cy="471.7" r="4.2" fill="#fff" stroke="#662c90" stroke-width="2.2"/>
<text x="621.7" y="474.7" font-size="9" fill="#222">T&amp;P Station</text>
<circle cx="612.6" cy="452.6" r="4.2" fill="#fff" stroke="#662c90" stroke-width="2.2"/>
<text x="618.6" y="455.6" font-size="9" fill="#222">Convention Center</text>
<circle cx="624.9" cy="492.5" r="4.2" fill="#fff" stroke="#662c90" stroke-width="2.2"/>
<text x="630.9" y="495.5" font-size="9" fill="#222">S Main</text>
<circle cx="624.7" cy="513.6" r="4.2" fill="#fff" stroke="#662c90" stroke-width="2.2"/>
<text x="630.7" y="516.6" font-size="9" fill="#222">S Main S</text>
<circle cx="563.7" cy="419.9" r="4.2" fill="#fff" stroke="#00b251" stroke-width="2.2"/>
<text x="569.7" y="422.9" font-size="9" fill="#222">TCC Trinity River</text>
<circle cx="504.4" cy="441.7" r="4.2" fill="#fff" stroke="#00b251" stroke-width="2.2"/>
<text x="510.4" y="444.7" font-size="9" fill="#222">W 7th E</text>
<circle cx="475.6" cy="446.7" r="4.2" fill="#fff" stroke="#00b251" stroke-width="2.2"/>
<text x="481.6" y="449.7" font-size="9" fill="#222">W 7th W</text>
<circle cx="447.1" cy="462.8" r="4.2" fill="#fff" stroke="#00b251" stroke-width="2.2"/>
<text x="453.1" y="465.8" font-size="9" fill="#222">Museum Way</text>
<circle cx="534" cy="558.1" r="4.2" fill="#fff" stroke="#df8600" stroke-width="2.2"/>
<text x="540" y="561.1" font-size="9" fill="#222">Medical City - Baylor</text>
<circle cx="562.8" cy="553.1" r="4.2" fill="#fff" stroke="#df8600" stroke-width="2.2"/>
<text x="568.8" y="556.1" font-size="9" fill="#222">Magnolia W</text>
<circle cx="598.9" cy="553" r="4.2" fill="#fff" stroke="#df8600" stroke-width="2.2"/>
<text x="604.9" y="556" font-size="9" fill="#222">Magnolia E</text>
<circle cx="622.4" cy="566.5" r="4.2" fill="#fff" stroke="#662c90" stroke-width="2.2"/>
<text x="628.4" y="569.5" font-size="9" fill="#222">John Peter Smith</text>
<circle cx="462.4" cy="561" r="4.2" fill="#fff" stroke="#df8600" stroke-width="2.2"/>
<text x="468.4" y="564" font-size="9" fill="#222">University Park</text>
<circle cx="598.3" cy="688.6" r="4.2" fill="#fff" stroke="#662c90" stroke-width="2.2"/>
<text x="604.3" y="691.6" font-size="9" fill="#222">Hemphill/Berry</text>
<circle cx="631.2" cy="795.4" r="4.2" fill="#fff" stroke="#662c90" stroke-width="2.2"/>
<text x="637.2" y="798.4" font-size="9" fill="#222">La Gran Plaza</text>
<circle cx="346.1" cy="660" r="4.2" fill="#fff" stroke="#df8600" stroke-width="2.2"/>
<text x="352.1" y="663" font-size="9" fill="#222">Stonegate</text>
<circle cx="303.1" cy="672.6" r="4.2" fill="#fff" stroke="#df8600" stroke-width="2.2"/>
<text x="309.1" y="675.6" font-size="9" fill="#222">Clearfork</text>
<circle cx="214.2" cy="726.2" r="4.2" fill="#fff" stroke="#df8600" stroke-width="2.2"/>
<text x="220.2" y="729.2" font-size="9" fill="#222">Waterside</text>
<circle cx="209.6" cy="566.1" r="4.2" fill="#fff" stroke="#00b251" stroke-width="2.2"/>
<text x="215.6" y="569.1" font-size="9" fill="#222">Ridglea Hills</text>
<circle cx="340.7" cy="550.4" r="4.2" fill="#fff" stroke="#00b251" stroke-width="2.2"/>
<text x="346.7" y="553.4" font-size="9" fill="#222">Arlington Heights</text>
<circle cx="171.1" cy="518.7" r="4.2" fill="#fff" stroke="#00b251" stroke-width="2.2"/>
<text x="177.1" y="521.7" font-size="9" fill="#222">Ridgmar</text>
<circle cx="107.6" cy="490.7" r="4.2" fill="#fff" stroke="#00b251" stroke-width="2.2"/>
<text x="113.6" y="493.7" font-size="9" fill="#222">Ridgmar Mall / BRT Transfer</text>
<circle cx="715.4" cy="321.4" r="4.2" fill="#fff" stroke="#00b251" stroke-width="2.2"/>
<text x="721.4" y="324.4" font-size="9" fill="#222">Six Points</text>
<circle cx="881.6" cy="316.7" r="4.2" fill="#fff" stroke="#00b251" stroke-width="2.2"/>
<text x="887.6" y="319.7" font-size="9" fill="#222">Riverside / Race St</text>
<circle cx="667.9" cy="445.7" r="4.2" fill="#fff" stroke="#0896d7" stroke-width="2.2"/>
<text x="673.9" y="448.7" font-size="9" fill="#222">Butler Place</text>
<circle cx="689.4" cy="468.7" r="4.2" fill="#fff" stroke="#0896d7" stroke-width="2.2"/>
<text x="695.4" y="471.7" font-size="9" fill="#222">Lancaster Ave</text>
<circle cx="819.7" cy="547.9" r="4.2" fill="#fff" stroke="#0896d7" stroke-width="2.2"/>
<text x="825.7" y="550.9" font-size="9" fill="#222">Polytechnic/Weslyan</text>
<circle cx="1119.9" cy="543.2" r="4.2" fill="#fff" stroke="#0896d7" stroke-width="2.2"/>
<text x="1125.9" y="546.2" font-size="9" fill="#222">Handley</text>
<circle cx="919" cy="497.5" r="4.2" fill="#fff" stroke="#0896d7" stroke-width="2.2"/>
<text x="925" y="500.5" font-size="9" fill="#222">Oakland Corners</text>
<circle cx="906.7" cy="159.1" r="4.2" fill="#fff" stroke="#00b251" stroke-width="2.2"/>
<text x="912.7" y="162.1" font-size="9" fill="#222">Haltom North</text>
<path d="M 59.7 296.7 l 2.6 5.4 l 5.9 .6 l -4.5 4 l 1.4 5.8 l -5.3 -3.1 l -5.3 3.1 l 1.4 -5.8 l -4.5 -4 l 5.9 -.6 z" fill="#e03131" stroke="#fff" stroke-width="1"/>
<text x="69.7" y="305.7" font-size="11" font-weight="700" fill="#c92a2a">Lockheed Martin (F-35)</text>
<text x="14" y="26" font-size="20" font-weight="700" fill="#111">Fort Worth Metro - Phase One (revised)</text>
<text x="14" y="44" font-size="11" fill="#555">To-scale. Trinity River forks in blue. Fixes: shared N river crossing, re-aligned Teal east, Blue terminates downtown, Lockheed gap flagged.</text>
<line x1="14" y1="855" x2="38" y2="855" stroke="#00b251" stroke-width="6" stroke-linecap="round"/><text x="44" y="859" font-size="12" fill="#222">Teal</text>
<line x1="124" y1="855" x2="148" y2="855" stroke="#0896d7" stroke-width="6" stroke-linecap="round"/><text x="154" y="859" font-size="12" fill="#222">Blue</text>
<line x1="234" y1="855" x2="258" y2="855" stroke="#df8600" stroke-width="6" stroke-linecap="round"/><text x="264" y="859" font-size="12" fill="#222">Orange</text>
<line x1="344" y1="855" x2="368" y2="855" stroke="#662c90" stroke-width="6" stroke-linecap="round"/><text x="374" y="859" font-size="12" fill="#222">Purple</text>
</svg>

