<svg xmlns="http://www.w3.org/2000/svg" viewBox="0 0 1180 1123" font-family="Helvetica,Arial,sans-serif">
<rect width="100%" height="100%" fill="#f7f7f4"/>
<polyline points="304.4,275.5 302.5,275.8 298.6,276 295.8,277.7 290.9,279 284,280.1 278.7,282.4 272.7,285.9 269.2,288.3 267.4,290.8 267.1,293.2 267.6,296.8 271.5,303.3 273.4,305.7 278,309.4 283.1,312.8 283.5,313.5 283.8,314.7 283.7,316.5 283.1,320.5 283.1,321.8 283.3,323.1 284,324.5 285.5,326.5 287.8,328.9 293.8,335.3 295.4,336.6 298.6,338.6 303.3,340.6 308.5,342.6 309.4,343 310.5,343.5 313.3,344.8 315.6,345.7 318.4,346.9 319.9,347.6 320.1,347.7 320.4,347.8 321,348.4 321.7,349 322.3,349.6 323.6,350.6 325.4,351.5 330.9,354.8 332.6,356.3 337.7,364 338.7,366.6 339,369.2 338.9,375.5 338.7,381.4 338.7,382.6 338.8,384.4 339.1,386 339.3,386.7 339.6,387.3 339.9,387.9 341.6,390.7 349.7,403.9 355.3,412.4 356.7,414.1 358.5,415.5 359.9,416.1 361.5,416.5 368.4,416.2 371.7,415.2 375.7,412.6 378.5,409.6" fill="none" stroke="#9ec7e0" stroke-width="4" stroke-linecap="round" stroke-linejoin="round" opacity="0.6"/>
<polyline points="867,415.6 868.7,416.1 870.3,416.8 872.3,417.5 875,416.6 877.2,415.8 879.3,414.8 880.7,413.4 882.3,411.6 883.1,409.7 883.1,406.7 883.4,405.5 885.9,401.8 887.9,399.2 888.8,398.6 891.3,398.6 892.5,398.6 895,398.2 895.9,397.6 896.8,396.6 897.7,394.8 898.5,393.2 900.3,389.3 900.9,385 901.4,382.6 901.8,378.5 902.8,372.8 902.8,371.2 902,369.7 901.2,367.7 899.6,366.1 899.2,365.1 899.1,364.1 899.6,362.2 900.3,358.9 899.8,356.9 899.2,356.2 898.2,355.3 897.1,354.2 894.9,352.8 894.2,351.6 894.5,350.8 894.8,349.9 896.2,349.7 897.9,349.6 900.1,350.5 902.3,353 903.3,353.5 904,353.7 904.8,353.4 905.4,350.2 904.8,348.3 903.9,345.3 902.4,339.9 901.3,337.5 899.2,335.4 898.2,334.2 897.9,332 898.1,329 899.6,327.1 901,325.4 901.3,323.3 901.3,320.8 900.6,319 898.4,315.4 895.1,313.9 893.6,312.7 892.7,311.9 892.2,311.4 891.8,309.9 893.8,307.4 895.5,306.9 897,305.9 897.4,303.6 896.6,301.8 896.3,299.1 896.5,298.5 896.9,297.2 897.7,296.6 899.1,296.2 903.2,295.8 904.8,294.7 904.4,293.2 902.8,291.9 900.7,290.7 899.7,289.3 899.8,288.1 899.9,287.6 900.7,286.9 902.2,285.6 903,285.1 904.4,284.3 906.3,283.3 911.2,283.2 913.3,282.3 915.6,281 916.8,280.8 918.5,280.5 921.3,280.9 924.7,282 928.7,283.2 932.4,284 938.1,285.6 942.2,286.8 944.5,287.4 945.9,287.7 948.6,288.2 954.3,288.9 957.5,290.6 959.1,292.9 961.2,297.4 964.2,299.3 967.2,300.5 969.8,300.6 972,301.2 973.3,302.4 974.5,304.5 976.5,307 978.7,309.7 979.5,310.6 981.5,311.8 984.5,313 989.5,315.6 991.8,317.8 992.5,317.9 993.5,318.1 994.9,317.3 996.1,316.8 997.4,315.7 999,313.1 1000.3,310.4 1001.4,309 1002.7,308.6 1004.8,308.9 1006.3,309.7 1008.5,312.5 1009.4,314.6 1010.8,317.4 1012.7,319 1013.7,319.3 1015,319 1016.3,318.8 1017.7,318 1019,317.2 1020.3,316.2 1021.3,314.7 1021.5,313.6 1022.5,308.9 1024.8,303.5 1025.8,298.4 1025.7,296.7 1025.6,295.8 1025.8,294.3 1027.6,292.9 1030.5,292.6 1032.8,292.2 1035.4,290.3 1041,284.8 1045.2,281.8 1046.4,280.9 1053,277.6 1062.6,274.1 1065.1,273 1068.9,271.5 1070.1,271 1084.8,264.6 1090.2,262.2 1092.1,262.1 1093.9,261.9 1098.2,262.3 1101.9,263.2 1103.6,263.5 1106.1,263.9 1110.2,265 1113.3,265.3 1118.1,266.4 1124.1,268.7 1124.3,268.8 1126.5,270.1 1129.8,272.6 1131.9,274.3 1134.3,274.8 1138.3,272.9 1140.7,271.8 1144.1,270 1149.4,268.1" fill="none" stroke="#9ec7e0" stroke-width="4" stroke-linecap="round" stroke-linejoin="round" opacity="0.6"/>
<polyline points="618,375.3 627.2,380.4 633.6,380.1 641.3,375.2 647,367.7 648.4,361.5 646.2,349.3 639.6,332.4 634.8,325.6 625.5,319.2 616.8,314.2 616.6,314.1 613,310.8 610.9,307.4 608.9,303.2 608,299.3 608.4,294.8 609.5,287.2 610.9,276.6 612.5,270.2 614.7,263.4 616.6,259.2 619.5,256.3 621.5,255.2 633.3,253.8 641.2,254.1 668.8,261.5 675.6,264.4 678.1,267 679.9,273.4 680.5,274.8 682.2,278.9 682.9,281.5 685.3,285.5 688.4,288.5 693.8,291 699.9,292.6 702.7,295 705.9,299 713.9,307.9 719.6,314.3 722.7,320.6 726.1,332 726.3,332.8 728.9,348.6 729.9,362.6 730.4,370.1 731.1,373.2 732.1,376.6 733.8,381.1 733.6,385.7 732.7,392.2 731.6,398.9 731.3,402.9 731.1,405.8 731.9,407.9 733.9,410.7 741,417 742,417.8 745.8,421.7 749,424 752.5,424.8 758.1,425 762.8,423.6 772.1,423 775.9,422.3 797.1,419.3 802.7,418.4 812.4,417 826.7,414.1 831.9,411.9 836.3,409.8 839.9,409.3 841.5,409.6 843.1,409.9 844.9,412.4 846,415.3 847.2,417.5 849.1,419.8 852.3,420.3 856.4,419.3 859.2,418.5 862.1,418.2 864,417 867,415.6" fill="none" stroke="#9ec7e0" stroke-width="4" stroke-linecap="round" stroke-linejoin="round" opacity="0.6"/>
<polyline points="267,688.8 267.6,688.7" fill="none" stroke="#9ec7e0" stroke-width="4" stroke-linecap="round" stroke-linejoin="round" opacity="0.6"/>
<polyline points="267.6,688.7 271.6,688.6 273.1,688.5 275.1,688.1 277.6,687.1 279.2,686.3 281.1,685 285.1,681 287,679.1 292.1,674 293.3,672.7 294,671.8 295.7,667.7 298.8,661.6 299.8,660.1 302,657.3 304.3,655.2 306.5,654 310.1,652.2 313.8,649.8 317,647.8 323.3,645.4 325.9,644.8 327.4,644.9 330,645.2 345.4,644.4 349,645.1 351.2,645.8 353.3,646.8 361.5,651.6 364.2,652.8 366.7,653.4 368.9,653.6 372,653.5 374,652.9 376.3,651.9 376.4,651.8 378.8,650.1 381.6,647.6 382.2,646.8 384.4,643.5 393,631.6 395.9,627.3 403.5,613.9 406.9,608.6 409.7,604.2 412.1,600 413.2,598.4 415,596.7 415.8,596.3 417.2,595.5 421.8,593.9 426.3,592.2 428.6,590.7 434,585.9 438.1,583 443.1,580.5 456.1,574.1 458.8,572.8 481.1,561.7 483.2,561.2 484.1,561.1 485.3,561.1 496,562.7 503.4,561.2 508.8,557.9 513.6,555.8 519.2,554 523.7,552.5 525.8,551.2 528.4,548.9 530.8,544 535.8,533.4 536.2,529.5 536,528.8 535.6,527 533.9,523.2 533.1,520 532.8,515 525.7,504.2 525.1,502.3 525.1,500.9 525.8,498.2 527.3,496.2 529.4,494.4 531.4,492.2 538.9,481.3 540.7,479.2 543.8,476.3 548.9,472 549.3,471.2 551.9,466.5 553.2,465.1 556.7,463.1 560.2,460.4 562.3,458.1 563.7,455.8 571.2,443.8 573.9,438.2 579.4,430 581.9,426.5 583.1,423 588,403.7 592.5,396.6 597.5,389.8 601,386.5 604.5,382.8 607.9,379.8 611,377.9 613.4,376.5 616.3,375.4 618,375.3" fill="none" stroke="#9ec7e0" stroke-width="4" stroke-linecap="round" stroke-linejoin="round" opacity="0.6"/>
<polyline points="522.4,355.9 525.8,356 534.1,355.1 548.2,352.7 569.5,349.2 582.8,345.6 586,345.3 588.6,345.8 591.4,348.1 593.4,350.2 599.5,358.5 603.9,362 607.7,364.2 608.9,365.3 612.2,368.9 615.8,373 618,375.3" fill="none" stroke="#9ec7e0" stroke-width="4" stroke-linecap="round" stroke-linejoin="round" opacity="0.6"/>
<polyline points="378.5,409.6 378.7,409.4" fill="none" stroke="#9ec7e0" stroke-width="4" stroke-linecap="round" stroke-linejoin="round" opacity="0.6"/>
<polyline points="378.7,409.4 379.2,408.9 380,407.2 385.9,388.7 387.1,387.1 389.3,385.1 402.3,377.9 406.5,377.6 411.1,376.7 417.5,374.7 423,372.1 427.9,368.5 431.8,364.1 441,356 444.3,351.2 446.6,346.5 447.6,342.8 448.7,335.4 448.6,332.4 447.5,325.3 446.4,322.6 439.9,310.4 439.7,308.8 439.8,306.9 440.6,305 442.1,303 444.1,301.1 452,295.3 453.4,294.8 455.1,294.6 456.8,294.6 464.5,295.5 467.8,296.5 470.1,298.2 474.5,302.2 480.6,308.4 485.9,313.8 487.1,315.3 487.8,317.4 488.4,319.1 488.4,336.8 488.8,339.8 489.8,342 490.9,343.7 493.4,346.2 495.3,347.4 501.1,350.3 507.4,351.7 514.3,353.4 518.1,353.9 522.4,355.9" fill="none" stroke="#9ec7e0" stroke-width="4" stroke-linecap="round" stroke-linejoin="round" opacity="0.6"/>
<polyline points="666.9,413.1 666.3,413.5 665.7,414.1 665,415.7 662.1,427 661.1,428.8 660.2,429.9 659.2,430.4 658.2,430.7 650.6,430.5 620,430.4 599.4,429.9 582.8,428.5 575,426.7 570.5,425.3 568.4,424.4 566.5,423.2 564.9,421.1 563.1,419.5 561.1,418.7 558.4,418.7 558.4,418.7 530.7,423.4 504.6,437.9 407,517.4 292.5,530.1 256.1,487.8 197.9,461 197.9,461 44,529.5" fill="none" stroke="#0896d7" stroke-width="4.5" stroke-linecap="round" stroke-linejoin="round" opacity="0.85"/>
<polyline points="232.6,114.2 324.5,182.9 418.5,257.5 509.9,340.7 623.7,400.8 634.2,501 642.7,601.2 646.1,646.8 761.5,646.8 842,614.2 948.2,628.7 1040.9,633.7" fill="none" stroke="#9aa0a6" stroke-width="4.5" stroke-linecap="round" stroke-linejoin="round" opacity="0.85"/>
<polyline points="72.5,800 189.6,733.9 293.3,681.3 375.1,632.2 414.7,620.7 476.2,571.1 521.3,530 515,480.9 507.4,439.9" fill="none" stroke="#bd1038" stroke-width="4.5" stroke-linecap="round" stroke-linejoin="round" opacity="0.85"/>
<polyline points="1124.9,513.5 1029.3,473.4 1019.2,470.9 988,471.6 948,471.7 940.5,471.5 934.7,471.6 930,473.2 849.3,517.8 845.5,521.5 839.5,522 821.4,521.9 802.1,521.5 791.8,518.8 788.3,516.8 786.6,513.2 784.6,509.3 784.3,496.5 782.6,489.3 779.6,481.7 776.5,476.7 768.4,469 761,460.7 756.6,455.7 732.9,448.9 729.7,445.1 729,444.7 710,424 709.5,423.5 708.4,423 670.1,412.9 668.8,412.9 667.8,413 666.9,413.1" fill="none" stroke="#0896d7" stroke-width="4.5" stroke-linecap="round" stroke-linejoin="round" opacity="0.85"/>
<polyline points="573.1,110.2 562.9,152.3 572.9,199.7 572.5,231.1 573.2,269.3 605.1,326.2 622.4,357 641,390.2 642.7,393.6 644.8,395.9 648.4,397.4 650.8,398 654.5,399.2 660.4,403 667,407 669.5,409.7 670.2,412.3 666.1,419.2 662.7,428.9 659.8,433.4 659,437.9 659.8,443 662.1,447.8 670.5,466.9 670.3,486.4 668.2,534.9 646,646.9 676.3,744.9" fill="none" stroke="#d63384" stroke-width="4.5" stroke-linecap="round" stroke-linejoin="round" opacity="0.85"/>
<polyline points="573.1,110.2 562.9,152.3 572.9,199.7 572.5,231.1 573.2,269.3 605.1,326.2 622.4,357 641,390.2 642.7,393.6 644.8,395.9 648.4,397.4 650.8,398 654.5,399.2 660.4,403 667,407 669.5,409.7 670.2,412.3 666.1,419.2 662.7,428.9 659.8,433.4 659,437.9 659.8,443 662.1,447.8 670.5,466.9 667.1,485.9 660.4,500 646.5,522.5 613.6,522.5 587.1,527 521.3,530 452.6,566.1 414.7,620.7 375.1,632.2 293.3,681.3" fill="none" stroke="#df8600" stroke-width="4.5" stroke-linecap="round" stroke-linejoin="round" opacity="0.85"/>
<polyline points="929.3,160.8 906.1,305.6 754.4,310.1 659.5,366.7 640.7,390.4 638.6,393.8 637.9,396.6 637.2,399.5 636.4,401.8 634.9,403.7 633.4,404.9 630.8,405 628.1,404.9 625.7,404.1 623.1,403 620.5,402.2 618.3,401 616.2,400.2 614.1,400.5 586.7,410.8 559.6,420.5 533.2,425.1 507,439.8 409.4,520.2 291.4,533.4 253.7,491.2 195.4,465.5" fill="none" stroke="#00b251" stroke-width="4.5" stroke-linecap="round" stroke-linejoin="round" opacity="0.85"/>
<polyline points="676.4,744.9 737.5,876.7 800.7,1012" fill="none" stroke="#fff" stroke-width="10" stroke-linecap="round" stroke-linejoin="round" opacity="0.7"/>
<polyline points="676.4,744.9 737.5,876.7 800.7,1012" fill="none" stroke="#d63384" stroke-width="7" stroke-linecap="round" stroke-linejoin="round" opacity="1"/>
<polyline points="906.1,305.6 1011.4,325.6 1091.1,356.7" fill="none" stroke="#fff" stroke-width="10" stroke-linecap="round" stroke-linejoin="round" opacity="0.7"/>
<polyline points="906.1,305.6 1011.4,325.6 1091.1,356.7" fill="none" stroke="#00b251" stroke-width="7" stroke-linecap="round" stroke-linejoin="round" opacity="1"/>
<polyline points="667.1,413.3 646.5,522.5 587.1,527 525.1,628.2 525.1,680.8" fill="none" stroke="#fff" stroke-width="10" stroke-linecap="round" stroke-linejoin="round" opacity="0.7"/>
<polyline points="667.1,413.3 646.5,522.5 587.1,527 525.1,628.2 525.1,680.8" fill="none" stroke="#7b2d8e" stroke-width="7" stroke-linecap="round" stroke-linejoin="round" opacity="1"/>
<polyline points="293.5,681.4 337.3,736.5 327.1,804.6 285.6,874.5 290.4,949.4" fill="none" stroke="#fff" stroke-width="10" stroke-linecap="round" stroke-linejoin="round" opacity="0.7"/>
<polyline points="293.5,681.4 337.3,736.5 327.1,804.6 285.6,874.5 290.4,949.4" fill="none" stroke="#df8600" stroke-width="7" stroke-linecap="round" stroke-linejoin="round" opacity="1"/>
<circle cx="573.1" cy="110.2" r="3.6" fill="#fff" stroke="#d63384" stroke-width="2.2"/>
<circle cx="562.9" cy="152.3" r="3.6" fill="#fff" stroke="#d63384" stroke-width="2.2"/>
<circle cx="572.9" cy="199.7" r="3.6" fill="#fff" stroke="#d63384" stroke-width="2.2"/>
<circle cx="572.5" cy="231.1" r="3.6" fill="#fff" stroke="#d63384" stroke-width="2.2"/>
<circle cx="573.2" cy="269.3" r="3.6" fill="#fff" stroke="#d63384" stroke-width="2.2"/>
<circle cx="605.1" cy="326.2" r="3.6" fill="#fff" stroke="#d63384" stroke-width="2.2"/>
<circle cx="622.4" cy="357" r="3.6" fill="#fff" stroke="#d63384" stroke-width="2.2"/>
<circle cx="659.4" cy="366.5" r="3.6" fill="#fff" stroke="#00b251" stroke-width="2.2"/>
<circle cx="641" cy="390.2" r="3.6" fill="#fff" stroke="#d63384" stroke-width="2.2"/>
<circle cx="646.7" cy="400.2" r="3.6" fill="#fff" stroke="#d63384" stroke-width="2.2"/>
<circle cx="666.9" cy="413.1" r="3.6" fill="#fff" stroke="#0896d7" stroke-width="2.2"/>
<circle cx="662.1" cy="447.8" r="3.6" fill="#fff" stroke="#d63384" stroke-width="2.2"/>
<circle cx="659.2" cy="430.4" r="3.6" fill="#fff" stroke="#d63384" stroke-width="2.2"/>
<circle cx="670.5" cy="466.9" r="3.6" fill="#fff" stroke="#d63384" stroke-width="2.2"/>
<circle cx="670.3" cy="486.4" r="3.6" fill="#fff" stroke="#d63384" stroke-width="2.2"/>
<circle cx="614.3" cy="400.3" r="3.6" fill="#fff" stroke="#00b251" stroke-width="2.2"/>
<circle cx="559.9" cy="420.3" r="3.6" fill="#fff" stroke="#00b251" stroke-width="2.2"/>
<circle cx="533.5" cy="425" r="3.6" fill="#fff" stroke="#00b251" stroke-width="2.2"/>
<circle cx="507.3" cy="439.7" r="3.6" fill="#fff" stroke="#00b251" stroke-width="2.2"/>
<circle cx="587.1" cy="527.1" r="3.6" fill="#fff" stroke="#df8600" stroke-width="2.2"/>
<circle cx="613.5" cy="522.6" r="3.6" fill="#fff" stroke="#df8600" stroke-width="2.2"/>
<circle cx="646.6" cy="522.5" r="3.6" fill="#fff" stroke="#df8600" stroke-width="2.2"/>
<circle cx="668.2" cy="534.9" r="3.6" fill="#fff" stroke="#d63384" stroke-width="2.2"/>
<circle cx="521.3" cy="529.8" r="3.6" fill="#fff" stroke="#df8600" stroke-width="2.2"/>
<circle cx="646" cy="646.9" r="3.6" fill="#fff" stroke="#d63384" stroke-width="2.2"/>
<circle cx="676.3" cy="744.9" r="3.6" fill="#fff" stroke="#d63384" stroke-width="2.2"/>
<circle cx="414.6" cy="620.6" r="3.6" fill="#fff" stroke="#df8600" stroke-width="2.2"/>
<circle cx="375.1" cy="632.2" r="3.6" fill="#fff" stroke="#df8600" stroke-width="2.2"/>
<circle cx="293.5" cy="681.4" r="3.6" fill="#fff" stroke="#df8600" stroke-width="2.2"/>
<circle cx="289.3" cy="534.5" r="3.6" fill="#fff" stroke="#00b251" stroke-width="2.2"/>
<circle cx="409.7" cy="520.1" r="3.6" fill="#fff" stroke="#00b251" stroke-width="2.2"/>
<circle cx="253.9" cy="491" r="3.6" fill="#fff" stroke="#00b251" stroke-width="2.2"/>
<circle cx="195.6" cy="465.3" r="3.6" fill="#fff" stroke="#00b251" stroke-width="2.2"/>
<circle cx="753.5" cy="309.9" r="3.6" fill="#fff" stroke="#00b251" stroke-width="2.2"/>
<circle cx="906.1" cy="305.6" r="3.6" fill="#fff" stroke="#00b251" stroke-width="2.2"/>
<circle cx="710" cy="424" r="3.6" fill="#fff" stroke="#0896d7" stroke-width="2.2"/>
<circle cx="729.7" cy="445.1" r="3.6" fill="#fff" stroke="#0896d7" stroke-width="2.2"/>
<circle cx="849.3" cy="517.8" r="3.6" fill="#fff" stroke="#0896d7" stroke-width="2.2"/>
<circle cx="1124.9" cy="513.5" r="3.6" fill="#fff" stroke="#0896d7" stroke-width="2.2"/>
<circle cx="940.5" cy="471.5" r="3.6" fill="#fff" stroke="#0896d7" stroke-width="2.2"/>
<circle cx="929.1" cy="161" r="3.6" fill="#fff" stroke="#00b251" stroke-width="2.2"/>
<circle cx="232.6" cy="114.2" r="3.6" fill="#fff" stroke="#9aa0a6" stroke-width="2.2"/>
<circle cx="418.5" cy="257.5" r="3.6" fill="#fff" stroke="#9aa0a6" stroke-width="2.2"/>
<circle cx="761.5" cy="646.8" r="3.6" fill="#fff" stroke="#9aa0a6" stroke-width="2.2"/>
<circle cx="842" cy="614.2" r="3.6" fill="#fff" stroke="#9aa0a6" stroke-width="2.2"/>
<circle cx="1040.9" cy="633.7" r="3.6" fill="#fff" stroke="#9aa0a6" stroke-width="2.2"/>
<circle cx="72.5" cy="800" r="3.6" fill="#fff" stroke="#bd1038" stroke-width="2.2"/>
<circle cx="525.1" cy="628.2" r="5.2" fill="#fff" stroke="#7b2d8e" stroke-width="2.2"/>
<text x="531.1" y="631.2" font-size="8.5" fill="#333">TCU</text>
<circle cx="525.1" cy="680.8" r="5.2" fill="#fff" stroke="#7b2d8e" stroke-width="2.2"/>
<text x="531.1" y="683.8" font-size="8.5" fill="#333">Bluebonnet Circle</text>
<circle cx="290.4" cy="949.3" r="5.2" fill="#fff" stroke="#df8600" stroke-width="2.2"/>
<text x="296.4" y="952.3" font-size="8.5" fill="#333">Hulen Mall</text>
<circle cx="303.4" cy="986.9" r="5.2" fill="#fff" stroke="#df8600" stroke-width="2.2"/>
<text x="309.4" y="989.9" font-size="8.5" fill="#333">Altamesa</text>
<circle cx="1091.1" cy="356.7" r="5.2" fill="#fff" stroke="#00b251" stroke-width="2.2"/>
<text x="1097.1" y="359.7" font-size="8.5" fill="#333">Woodhaven</text>
<circle cx="800.7" cy="1012" r="5.2" fill="#fff" stroke="#d63384" stroke-width="2.2"/>
<text x="806.7" y="1015" font-size="8.5" fill="#333">Everman</text>
<text x="14" y="28" font-size="22" font-weight="700" fill="#111">Fort Worth Metro - Phase 3  (2070)</text>
<text x="14" y="48" font-size="12" fill="#666">+ Purple (TCU), Orange to Hulen, Pink to Everman, Teal to Woodhaven</text>
<line x1="14" y1="1082" x2="36" y2="1082" stroke="#00b251" stroke-width="6" stroke-linecap="round"/><text x="41" y="1086" font-size="11" fill="#222">Teal</text>
<line x1="182.571428571429" y1="1082" x2="204.571428571429" y2="1082" stroke="#0896d7" stroke-width="6" stroke-linecap="round"/><text x="209.571428571429" y="1086" font-size="11" fill="#222">Blue</text>
<line x1="351.142857142857" y1="1082" x2="373.142857142857" y2="1082" stroke="#df8600" stroke-width="6" stroke-linecap="round"/><text x="378.142857142857" y="1086" font-size="11" fill="#222">Orange</text>
<line x1="519.714285714286" y1="1082" x2="541.714285714286" y2="1082" stroke="#d63384" stroke-width="6" stroke-linecap="round"/><text x="546.714285714286" y="1086" font-size="11" fill="#222">Pink</text>
<line x1="688.285714285714" y1="1082" x2="710.285714285714" y2="1082" stroke="#9aa0a6" stroke-width="6" stroke-linecap="round"/><text x="715.285714285714" y="1086" font-size="11" fill="#222">Silver</text>
<line x1="856.857142857143" y1="1082" x2="878.857142857143" y2="1082" stroke="#bd1038" stroke-width="6" stroke-linecap="round"/><text x="883.857142857143" y="1086" font-size="11" fill="#222">Red</text>
<line x1="1025.42857142857" y1="1082" x2="1047.42857142857" y2="1082" stroke="#7b2d8e" stroke-width="6" stroke-linecap="round"/><text x="1052.42857142857" y="1086" font-size="11" fill="#222">Purple (TCU)</text>
</svg>

